<?xml version="1.0" standalone="no"?>
<!DOCTYPE svg PUBLIC "-//W3C//DTD SVG 20010904//EN"
 "http://www.w3.org/TR/2001/REC-SVG-20010904/DTD/svg10.dtd">
<svg version="1.0" xmlns="http://www.w3.org/2000/svg"
 width="643.000000pt" height="643.000000pt" viewBox="0 0 643.000000 643.000000"
 preserveAspectRatio="xMidYMid meet">
<metadata>
Created by potrace 1.11, written by Peter Selinger 2001-2013
</metadata>
<g transform="translate(0.000000,643.000000) scale(0.100000,-0.100000)"
fill="#000000" stroke="none">
<path d="M1687 6274 c-1 -1 -45 -4 -98 -8 -53 -4 -107 -9 -120 -11 -13 -2 -40
-6 -59 -9 -306 -48 -627 -190 -850 -377 -280 -233 -471 -560 -536 -914 -19
-106 -25 -350 -12 -475 59 -542 457 -1026 993 -1208 104 -35 238 -68 310 -77
28 -3 77 -10 110 -14 33 -5 145 -8 250 -7 l190 1 79 -105 c164 -216 231 -305
243 -320 7 -8 98 -129 203 -268 l191 -253 -1 -417 c-2 -496 -9 -559 -76 -626
-65 -64 -168 -94 -324 -92 -47 1 -81 -3 -81 -9 -1 -5 -2 -25 -3 -42 l-1 -33
664 0 c365 0 665 -1 666 -2 7 -8 -288 -585 -336 -658 -74 -112 -139 -183 -191
-207 -43 -20 -181 -57 -230 -62 -5 -1 -8 -19 -8 -41 l0 -40 540 0 540 0 0 40
c0 35 -3 40 -22 41 -13 0 -30 2 -38 3 -8 2 -37 6 -65 10 -149 18 -220 50 -254
114 -38 72 -16 143 161 502 l140 285 661 0 662 0 102 -205 c203 -406 237 -510
192 -589 -11 -20 -34 -46 -52 -58 -44 -30 -159 -58 -259 -62 -14 -1 -18 -10
-18 -41 l0 -40 674 0 674 0 4 36 c5 41 1 44 -55 50 -117 13 -235 58 -293 113
-103 97 -161 198 -404 706 -32 66 -99 206 -150 310 -51 105 -118 244 -150 310
-32 66 -95 197 -140 290 -45 94 -113 233 -150 310 -37 77 -105 217 -150 310
-45 94 -106 220 -135 280 -29 61 -76 157 -104 215 l-52 105 -43 1 -43 2 -51
-102 c-62 -123 -500 -1011 -737 -1493 l-173 -351 -69 3 c-179 10 -277 66 -310
177 -21 71 -26 183 -27 600 l0 397 40 55 c36 50 94 130 356 487 51 70 103 140
115 155 12 16 104 142 204 279 211 289 286 382 373 462 112 103 283 181 417
191 l67 5 -1 38 -1 39 -598 0 -598 0 0 -40 0 -40 43 -1 c23 0 51 -2 62 -4 11
-2 36 -7 55 -10 107 -20 192 -115 185 -205 -7 -84 -52 -166 -204 -372 -53 -73
-211 -288 -350 -478 -140 -190 -257 -349 -261 -354 -5 -4 -146 175 -314 400
l-306 408 107 56 c163 85 283 176 409 310 89 95 214 258 214 279 0 6 -16 19
-36 28 l-36 17 -51 -59 c-209 -239 -401 -390 -587 -463 -119 -47 -110 -48
-156 16 -142 195 -154 295 -44 370 48 32 124 53 215 58 104 7 105 7 105 49 l0
35 -735 0 -735 0 0 -40 c0 -39 1 -40 35 -40 19 0 36 0 38 0 8 1 123 -42 173
-65 124 -58 167 -98 327 -304 54 -69 105 -134 113 -145 15 -17 13 -18 -50 -12
-88 8 -224 40 -326 78 -313 114 -524 315 -644 613 -31 77 -70 206 -80 270 -3
17 -7 44 -10 60 -17 106 -24 357 -12 480 12 127 20 181 41 280 85 395 285 680
582 829 384 192 911 170 1251 -53 192 -127 344 -329 447 -597 l27 -70 39 -1
40 -1 -6 67 c-13 150 -20 233 -30 381 -3 36 -8 97 -11 135 -6 79 -10 133 -19
253 -8 117 -14 164 -19 169 -3 3 -21 6 -41 7 -36 1 -38 0 -65 -59 -74 -160
-153 -178 -375 -87 -192 78 -364 121 -554 137 -77 6 -200 12 -204 9z m2740
-4101 c47 -98 109 -227 138 -288 54 -113 216 -447 299 -615 25 -52 46 -99 46
-105 0 -7 -184 -10 -584 -10 -525 0 -583 2 -577 16 12 31 586 1179 589 1179 1
0 41 -80 89 -177z"/>
</g>
</svg>
